<svg width="65" height="56" viewBox="0 0 65 56" fill="none" xmlns="http://www.w3.org/2000/svg">
<path d="M65 38C65 47.9411 56.9411 56 47 56L20 56C17.2386 56 15 53.7614 15 51L15 17C15 11.4772 19.4772 7 25 7L60 7C62.7614 7 65 9.23858 65 12L65 38Z" fill="#E8F5E9"/>
<path d="M28.3117 23.6446C28.0709 23.6446 27.8473 23.5784 27.6487 23.4719V23.4748C27.6487 23.8536 27.5014 24.2094 27.2343 24.4758C26.9671 24.743 26.6116 24.8903 26.2332 24.8903C25.9889 24.8903 25.7625 24.8224 25.5617 24.7131C25.5415 25.0597 25.4029 25.3836 25.1558 25.631C24.8886 25.8982 24.5331 26.0454 24.1545 26.0454C23.4022 26.0454 22.7913 25.4541 22.7473 24.7129C22.5145 24.8387 22.2513 24.9046 21.9799 24.8872C21.2398 24.8387 20.6603 24.1993 20.6603 23.4312V17.0645L19.9353 18.3205C19.6592 18.8009 19.1423 19.0991 18.5858 19.0991C18.3147 19.0991 18.0468 19.028 17.8095 18.892C17.5141 18.7208 17.3028 18.4458 17.2149 18.1169C17.1265 17.7878 17.1722 17.4436 17.3431 17.1486C17.3433 17.1486 19.715 13.0414 19.8597 12.7891C19.8769 12.7512 19.9259 12.6411 19.9676 12.5474C20.0075 12.4578 20.0416 12.366 20.0744 12.2736C20.7896 10.2543 22.5607 8.99998 24.6966 8.99998C27.4703 8.99998 29.7268 11.4469 29.7268 14.4546L29.727 22.2289C29.727 22.6073 29.58 22.9628 29.3131 23.2302C29.0459 23.4974 28.6904 23.6447 28.3116 23.6447L28.3117 23.6446ZM24.6966 9.75212C22.8613 9.75212 21.3984 10.7888 20.7833 12.5251C20.744 12.6354 20.703 12.7457 20.6552 12.8531C20.5164 13.1643 20.5164 13.1643 20.4773 13.2091L20.4721 13.2046C20.2784 13.57 19.7031 14.5663 17.9943 17.525C17.9241 17.6463 17.9055 17.7872 17.9413 17.922C17.9776 18.0567 18.0645 18.1703 18.1849 18.2398C18.5586 18.4544 19.0703 18.3159 19.2833 17.9448L20.7108 15.4734C20.7961 15.3261 20.9685 15.2538 21.1339 15.2986C21.2983 15.3426 21.4126 15.4918 21.4126 15.6619V23.4314C21.4126 23.798 21.6892 24.1144 22.0292 24.1368C22.2252 24.1471 22.408 24.0814 22.5454 23.9443C22.6702 23.8194 22.739 23.6531 22.739 23.4752V18.3938C22.739 18.186 22.9075 18.0176 23.1153 18.0176C23.3231 18.0176 23.4915 18.1858 23.4915 18.3938L23.4913 24.6302C23.4913 24.9958 23.7889 25.2934 24.1545 25.2934C24.3321 25.2934 24.499 25.2246 24.6241 25.0997C24.7489 24.9746 24.8177 24.8078 24.8177 24.6302V18.3938C24.8177 18.186 24.9859 18.0176 25.194 18.0176C25.4018 18.0176 25.5702 18.1858 25.5702 18.3938L25.57 23.4168V23.4752C25.57 23.8406 25.8675 24.1381 26.2334 24.1381C26.4108 24.1381 26.5772 24.0691 26.703 23.9438C26.8278 23.8191 26.8966 23.6528 26.8966 23.4749V18.3936C26.8966 18.1858 27.0649 18.0173 27.2729 18.0173C27.4807 18.0173 27.6491 18.1855 27.6491 18.3936L27.6487 22.2291C27.6487 22.595 27.9462 22.8925 28.3116 22.8925C28.4895 22.8925 28.6558 22.8235 28.7807 22.6989C28.906 22.5736 28.9746 22.4067 28.9746 22.2291L28.9748 14.4548C28.9748 11.862 27.0557 9.7522 24.6966 9.7522L24.6966 9.75212Z" fill="#E06430"/>
<path d="M13.5292 29.0481L18.9889 25.7728C19.6472 25.3774 20.4942 25.5454 20.9164 26.1554C21.0704 26.3776 21.1491 26.6365 21.1614 26.9001C21.3649 26.7939 21.5864 26.7362 21.8119 26.7362C21.9273 26.7362 22.0432 26.7505 22.1577 26.779C22.5245 26.8707 22.8336 27.0999 23.028 27.4241C23.2226 27.7487 23.2794 28.1292 23.1878 28.4956C23.1032 28.8346 22.897 29.12 22.6103 29.3157C22.8108 29.434 22.9837 29.5954 23.1067 29.8008C23.3013 30.1255 23.3581 30.5058 23.2667 30.8726C23.1751 31.239 22.9458 31.548 22.6212 31.7429L22.6193 31.7441C22.8162 31.8621 22.9861 32.0219 23.1077 32.2242C23.3025 32.5489 23.3593 32.9294 23.2676 33.2962C23.1758 33.6628 22.9465 33.9719 22.6224 34.1665L15.956 38.1658C14.7118 38.9119 13.2734 39.1695 11.9065 38.8903C10.5273 38.6085 9.38509 37.8157 8.69059 36.658C7.5915 34.8262 7.75622 32.662 9.11961 31.0102C9.18205 30.9348 9.24354 30.858 9.29937 30.7784C9.35851 30.6943 9.42754 30.5953 9.4511 30.5614C9.59222 30.3093 11.895 26.1604 11.8947 26.1609C12.1273 25.7413 12.5631 25.5038 13.0126 25.504C13.2223 25.504 13.4351 25.5556 13.6313 25.6645C13.8683 25.7969 14.0674 25.9898 14.2067 26.2223C14.4929 26.6994 14.5031 27.2965 14.2335 27.7796L13.5292 29.0481ZM13.562 26.6091C13.4889 26.4873 13.3886 26.3903 13.2658 26.3215C13.0121 26.1811 12.6926 26.2725 12.5529 26.5253C10.9052 29.4938 10.3435 30.5054 10.1267 30.8654L10.1317 30.8666C10.1135 30.9269 10.1135 30.9269 9.91514 31.2104C9.84776 31.3062 9.77449 31.3984 9.69981 31.4891C8.52744 32.9095 8.39132 34.697 9.33534 36.271C9.92009 37.2459 10.8865 37.9143 12.0567 38.1532C13.2396 38.3937 14.4864 38.1699 15.5686 37.5206L22.2356 33.5211C22.3878 33.43 22.4952 33.2851 22.5381 33.1133C22.581 32.9418 22.5543 32.7635 22.4629 32.6113C22.2749 32.2979 21.8666 32.195 21.5533 32.3837L18.2644 34.3568C18.0862 34.4638 17.8549 34.4063 17.7482 34.228C17.6412 34.0498 17.6989 33.8187 17.877 33.7118L21.1662 31.7386L22.2344 31.0978C22.3866 31.0064 22.4943 30.8615 22.5371 30.6902C22.58 30.5185 22.5534 30.3399 22.462 30.1879C22.2737 29.8743 21.8655 29.7723 21.5523 29.9603L17.195 32.5743C17.0164 32.6815 16.7857 32.6235 16.6788 32.4454C16.5718 32.2673 16.6298 32.0362 16.8076 31.9292L22.1555 28.7211C22.3077 28.6297 22.4151 28.485 22.458 28.3133C22.5009 28.1418 22.4742 27.9634 22.3831 27.8112C22.2919 27.6593 22.147 27.5518 21.9753 27.509C21.8026 27.4661 21.6249 27.4927 21.4732 27.5837L20.4832 28.1776C20.483 28.1776 20.483 28.1778 20.4827 28.1778H20.4825L16.1254 30.7918C15.9468 30.8992 15.7159 30.8413 15.6092 30.6629C15.5022 30.4848 15.5602 30.2537 15.738 30.1467L20.0954 27.5328C20.2476 27.4414 20.3553 27.2965 20.3982 27.1252C20.4453 26.9372 20.4095 26.7449 20.2978 26.5838C20.1041 26.3037 19.69 26.2292 19.3759 26.4179L12.7137 30.4146C12.5679 30.5018 12.3811 30.4806 12.2588 30.3626C12.1363 30.2443 12.1087 30.0584 12.1912 29.9097L13.5765 27.4138C13.7155 27.1643 13.7101 26.8561 13.5619 26.6092L13.562 26.6091Z" fill="#E06430"/>
<path d="M39.6183 36.6577C38.924 37.8157 37.7821 38.6083 36.4027 38.8901C35.0355 39.1688 33.5977 38.9117 32.3532 38.1656L25.6862 34.1661C25.3618 33.9715 25.1323 33.6624 25.0404 33.2953C24.9493 32.9289 25.0063 32.5484 25.2006 32.2243C25.322 32.0216 25.4921 31.8619 25.6893 31.7439L25.6874 31.7427C25.363 31.5481 25.1335 31.239 25.0421 30.8724C24.9502 30.5058 25.0072 30.125 25.2018 29.8004C25.3272 29.5919 25.4989 29.4289 25.6949 29.3132C25.4103 29.1174 25.2054 28.8331 25.121 28.4957C25.0291 28.1288 25.0862 27.7483 25.2808 27.4242C25.4751 27.0997 25.7845 26.8705 26.1511 26.7789C26.2656 26.7501 26.3817 26.736 26.4967 26.736C26.7224 26.7362 26.9439 26.7935 27.1474 26.9C27.1599 26.6363 27.2384 26.3774 27.3924 26.1552C27.8149 25.5458 28.6611 25.3771 29.3203 25.7726L34.7799 29.0474L34.0762 27.7799C33.8062 27.296 33.8161 26.699 34.1023 26.2216C34.2418 25.9893 34.4411 25.7964 34.6793 25.6628C34.8751 25.5544 35.0871 25.5031 35.2963 25.5031C35.7456 25.5033 36.1819 25.7403 36.4142 26.1599C37.2237 27.6185 38.7513 30.3694 38.8587 30.5614C38.8816 30.5946 38.9506 30.6936 39.0098 30.7777C39.0661 30.8575 39.1268 30.9339 39.1898 31.0097C40.5529 32.6622 40.7174 34.8262 39.6183 36.6578L39.6183 36.6577ZM38.6093 31.4892C38.5344 31.3985 38.4609 31.3059 38.394 31.2105C38.1904 30.9217 38.1852 30.9141 38.1699 30.8385C37.932 30.4448 37.3515 29.3997 35.7558 26.5249C35.6158 26.2726 35.2978 26.1805 35.0445 26.3204C34.9199 26.3901 34.8197 26.4874 34.7467 26.6093C34.5987 26.8559 34.5931 27.1641 34.7328 27.4143L36.1177 29.9095C36.2003 30.0584 36.1728 30.2441 36.0505 30.3623C35.9285 30.4808 35.7419 30.5016 35.5953 30.4144L28.9331 26.4177C28.6191 26.2295 28.2052 26.3032 28.011 26.5836C27.8993 26.7447 27.8638 26.937 27.9104 27.1247C27.9533 27.2963 28.061 27.4409 28.2134 27.5323C28.2139 27.5326 28.2141 27.533 28.2146 27.5333L32.5706 30.1465C32.7487 30.2535 32.8064 30.4844 32.6994 30.6627C32.5925 30.8406 32.3618 30.8988 32.1832 30.7916L26.8354 27.5835C26.6837 27.4925 26.5051 27.4657 26.3336 27.5088C26.1616 27.5517 26.0169 27.6591 25.9258 27.8115C25.8343 27.9635 25.808 28.1418 25.8504 28.3133C25.8932 28.4849 26.0009 28.6297 26.1531 28.7212L27.1938 29.3453L31.5007 31.9293C31.6788 32.0363 31.7365 32.2672 31.6296 32.4455C31.5226 32.6234 31.292 32.6814 31.1134 32.5744L26.7565 29.9604C26.4431 29.7719 26.0351 29.8742 25.8466 30.188C25.7552 30.3402 25.7288 30.5186 25.7712 30.6901C25.8141 30.8616 25.9218 31.0062 26.0742 31.0979L27.1424 31.7387L30.4311 33.7119C30.6092 33.8188 30.6669 34.0497 30.56 34.2281C30.453 34.4059 30.2223 34.4644 30.0438 34.3569L26.7551 32.3838C26.6033 32.2928 26.4255 32.266 26.253 32.3091C26.0815 32.352 25.9364 32.4594 25.8452 32.6114C25.754 32.7636 25.7274 32.9421 25.7698 33.1134C25.8127 33.2849 25.9204 33.4296 26.0728 33.5212L32.7398 37.5207C33.8217 38.1698 35.0694 38.3945 36.2516 38.1533C37.4216 37.9144 38.388 37.246 38.9728 36.2711C39.9178 34.6968 39.7818 32.9091 38.6097 31.4892L38.6093 31.4892Z" fill="#E06430"/>
</svg>
