<svg width="440" height="188" viewBox="0 0 440 188" fill="none" xmlns="http://www.w3.org/2000/svg">
<path d="M0 12H65C113.601 12 153 51.3989 153 100V100C153 148.601 113.601 188 65 188H0V12Z" fill="#D7612F"/>
<path d="M85.8 32.4H103.4L149.2 159H130.2L120.6 130.4H68.8L59 159H40L85.8 32.4ZM94.6 54.8L74 115H115.2L94.6 54.8Z" fill="#F5F7FA"/>
<path d="M280.2 38.2V141.8C280.2 158.733 272.467 167.2 257 167.2C248.467 167.2 240.533 164.467 233.2 159L239.2 149.8C243.733 152.467 248.333 153.8 253 153.8C259.667 153.8 263 149.4 263 140.6V38.2H280.2ZM261 10.2C261 7.4 262 5 264 2.99999C266 0.999991 268.4 -8.10623e-06 271.2 -8.10623e-06C274 -8.10623e-06 276.4 0.999991 278.4 2.99999C280.533 5 281.6 7.4 281.6 10.2C281.6 13.1333 280.6 15.6 278.6 17.6C276.6 19.6 274.133 20.6 271.2 20.6C268.267 20.6 265.8 19.6 263.8 17.6C261.933 15.6 261 13.1333 261 10.2Z" fill="#6D7175"/>
<path d="M169.4 63.2V159H151V32.4H167.2C193.867 71.0667 215.267 103.733 231.4 130.4V32.4H250V159H233.4C219.8 140.2 198.467 108.267 169.4 63.2Z" fill="#6D7175"/>
</svg>
