<svg width="48" height="47" viewBox="0 0 48 47" fill="none" xmlns="http://www.w3.org/2000/svg">
<g opacity="0.8">
<path d="M28.2177 15.307C27.7968 15.307 27.4546 14.9197 27.4546 14.442V12.9721C27.4546 12.495 27.7962 12.1072 28.2177 12.1072C28.6387 12.1072 28.9809 12.4944 28.9809 12.9721V14.442C28.9809 14.9197 28.6387 15.307 28.2177 15.307Z" fill="#E06430"/>
<path d="M25.0097 15.307C24.5888 15.307 24.2466 14.9197 24.2466 14.442V12.9721C24.2466 12.495 24.5882 12.1072 25.0097 12.1072C25.4307 12.1072 25.7729 12.4944 25.7729 12.9721V14.442C25.7723 14.9197 25.4312 15.307 25.0097 15.307Z" fill="#E06430"/>
<path d="M21.8012 15.307C21.3803 15.307 21.0381 14.9197 21.0381 14.442V12.9721C21.0381 12.495 21.3797 12.1072 21.8012 12.1072C22.2222 12.1072 22.5644 12.4944 22.5644 12.9721V14.442C22.5644 14.9197 22.2227 15.307 21.8012 15.307Z" fill="#E06430"/>
<path d="M28.2177 21.3179C27.7968 21.3179 27.4546 20.9307 27.4546 20.453V18.9837C27.4546 18.5066 27.7962 18.1188 28.2177 18.1188C28.6387 18.1188 28.9809 18.506 28.9809 18.9837V20.453C28.9809 20.9307 28.6387 21.3179 28.2177 21.3179Z" fill="#E06430"/>
<path d="M25.0097 21.3179C24.5888 21.3179 24.2466 20.9307 24.2466 20.453V18.9837C24.2466 18.5066 24.5882 18.1188 25.0097 18.1188C25.4307 18.1188 25.7729 18.506 25.7729 18.9837V20.453C25.7723 20.9307 25.4312 21.3179 25.0097 21.3179Z" fill="#E06430"/>
<path d="M21.8012 21.3179C21.3803 21.3179 21.0381 20.9307 21.0381 20.453V18.9837C21.0381 18.5066 21.3797 18.1188 21.8012 18.1188C22.2222 18.1188 22.5644 18.506 22.5644 18.9837V20.453C22.5644 20.9307 22.2227 21.3179 21.8012 21.3179Z" fill="#E06430"/>
<path d="M28.2177 27.329C27.7968 27.329 27.4546 26.9418 27.4546 26.4641V24.9942C27.4546 24.5171 27.7962 24.1293 28.2177 24.1293C28.6387 24.1293 28.9809 24.5165 28.9809 24.9942V26.4641C28.9809 26.9418 28.6387 27.329 28.2177 27.329Z" fill="#E06430"/>
<path d="M25.0097 27.329C24.5888 27.329 24.2466 26.9418 24.2466 26.4641V24.9942C24.2466 24.5171 24.5882 24.1293 25.0097 24.1293C25.4307 24.1293 25.7729 24.5165 25.7729 24.9942V26.4641C25.7723 26.9418 25.4312 27.329 25.0097 27.329Z" fill="#E06430"/>
<path d="M21.8012 27.329C21.3803 27.329 21.0381 26.9418 21.0381 26.4641V24.9942C21.0381 24.5171 21.3797 24.1293 21.8012 24.1293C22.2222 24.1293 22.5644 24.5165 22.5644 24.9942V26.4641C22.5644 26.9418 22.2227 27.329 21.8012 27.329Z" fill="#E06430"/>
<path d="M28.2177 33.3388C27.7968 33.3388 27.4546 32.9516 27.4546 32.4739V31.004C27.4546 30.5269 27.7962 30.139 28.2177 30.139C28.6387 30.139 28.9809 30.5263 28.9809 31.004V32.4739C28.9809 32.9516 28.6387 33.3388 28.2177 33.3388Z" fill="#E06430"/>
<path d="M25.0097 33.3388C24.5888 33.3388 24.2466 32.9516 24.2466 32.4739V31.004C24.2466 30.5269 24.5882 30.139 25.0097 30.139C25.4307 30.139 25.7729 30.5263 25.7729 31.004V32.4739C25.7723 32.9516 25.4312 33.3388 25.0097 33.3388Z" fill="#E06430"/>
<path d="M21.8012 33.3388C21.3803 33.3388 21.0381 32.9516 21.0381 32.4739V31.004C21.0381 30.5269 21.3797 30.139 21.8012 30.139C22.2222 30.139 22.5644 30.5263 22.5644 31.004V32.4739C22.5644 32.9516 22.2227 33.3388 21.8012 33.3388Z" fill="#E06430"/>
<path d="M28.2177 39.3498C27.7968 39.3498 27.4546 38.9626 27.4546 38.4849V37.0156C27.4546 36.5385 27.7962 36.1506 28.2177 36.1506C28.6387 36.1506 28.9809 36.5379 28.9809 37.0156V38.4849C28.9809 38.962 28.6387 39.3498 28.2177 39.3498Z" fill="#E06430"/>
<path d="M25.0097 39.3498C24.5888 39.3498 24.2466 38.9626 24.2466 38.4849V37.0156C24.2466 36.5385 24.5882 36.1506 25.0097 36.1506C25.4307 36.1506 25.7729 36.5379 25.7729 37.0156V38.4849C25.7723 38.962 25.4312 39.3498 25.0097 39.3498Z" fill="#E06430"/>
<path d="M21.8012 39.3498C21.3803 39.3498 21.0381 38.9626 21.0381 38.4849L21.0386 37.0156C21.0386 36.5385 21.3803 36.1506 21.8018 36.1506C22.2227 36.1506 22.5649 36.5379 22.5649 37.0156V38.4849C22.5644 38.962 22.2227 39.3498 21.8012 39.3498Z" fill="#E06430"/>
<path d="M0.000640273 45.3317C0.000640273 45.8088 0.342296 46.1966 0.763785 46.1966H47.2369C47.6578 46.1966 48 45.8094 48 45.3317C48 44.8546 47.6583 44.4668 47.2369 44.4668H45.8261V19.6332C45.8261 19.1561 45.4845 18.7682 45.063 18.7682L32.6032 18.7688V0.865074C32.6032 0.562293 32.4638 0.282427 32.236 0.125594C32.0087 -0.0318263 31.7246 -0.0414765 31.4883 0.0978484L17.3224 8.45709C17.0696 8.60607 16.9121 8.90162 16.9121 9.22432V24.8629H3.20257C2.78163 24.8629 2.43943 25.2501 2.43943 25.7278V44.4669H0.762083C0.341138 44.4663 0 44.8535 0 45.3312L0.000640273 45.3317ZM32.6035 31.8686H44.3006V44.4675L32.6035 44.4669V31.8686ZM32.6035 25.8581H44.3006V30.1394L32.6035 30.1388V25.8581ZM32.6035 20.4978H44.3006V24.1295H32.6035V20.4978ZM18.4376 9.74951L31.0766 2.29078V44.4661H18.4376V9.74951ZM7.73821 37.5586C7.73821 35.7636 8.99307 34.3027 10.5358 34.3027C12.0786 34.3027 13.334 35.763 13.334 37.5586V44.4672H7.73821V37.5586ZM3.96567 26.5925H16.9118V44.4669H14.8603V37.5583C14.8603 34.8097 12.9211 32.5732 10.5358 32.5732C8.15168 32.5732 6.21249 34.809 6.21249 37.5583V44.4669H3.96567V26.5925Z" fill="#E06430"/>
</g>
</svg>
