<svg width="48" height="48" viewBox="0 0 48 48" fill="none" xmlns="http://www.w3.org/2000/svg">
<path d="M23.2959 29.5471L23.9032 29.0362C25.7083 27.5177 27.0027 25.4809 27.6111 23.2019C28.2194 20.9229 28.1122 18.512 27.3041 16.2959C26.4959 14.0799 25.0259 12.166 23.0933 10.8136C21.1606 9.4613 18.8589 8.73596 16.5001 8.73596C14.1413 8.73596 11.8396 9.4613 9.90694 10.8136C7.9743 12.166 6.50426 14.0799 5.69612 16.2959C4.88797 18.512 4.78081 20.9229 5.38916 23.2019C5.99751 25.4809 7.29195 27.5177 9.09698 29.0362L9.70433 29.5471L8.98125 29.8743C6.00808 31.2198 3.44959 33.3371 1.57179 36.0061L23.2959 29.5471ZM23.2959 29.5471L24.019 29.8743M23.2959 29.5471L24.019 29.8743M24.019 29.8743C26.9923 31.2198 29.5508 33.3373 31.4287 36.0065L31.4358 36.0167L31.4435 36.0264C31.5893 36.2133 31.6957 36.4279 31.7562 36.6572C31.8166 36.8864 31.8298 37.1255 31.795 37.36C31.7602 37.5946 31.6782 37.8196 31.5538 38.0214C31.4294 38.2232 31.2653 38.3977 31.0714 38.5341C30.8776 38.6706 30.658 38.7663 30.4261 38.8154C30.1941 38.8644 29.9547 38.8658 29.7221 38.8195C29.4896 38.7732 29.2689 38.6802 29.0735 38.546C28.878 38.4118 28.7119 38.2393 28.5851 38.0389L28.5787 38.0288L28.5718 38.019C27.2111 36.0809 25.4037 34.499 23.3026 33.4069C21.2014 32.3148 18.8682 31.7446 16.5001 31.7446C14.1321 31.7446 11.7988 32.3148 9.69765 33.4069C7.59647 34.499 5.78912 36.0809 4.42839 38.019L4.42728 38.0206C4.26732 38.2503 4.05404 38.4378 3.80573 38.567C3.55741 38.6963 3.28147 38.7633 3.00154 38.7625L2.99848 38.7625C2.63947 38.7637 2.28918 38.652 1.99711 38.4433L1.9947 38.4416M24.019 29.8743L1.9947 38.4416M1.9947 38.4416C1.61613 38.1743 1.359 37.7679 1.27972 37.3113C1.20046 36.8549 1.30541 36.3857 1.57154 36.0065L1.9947 38.4416ZM46.2902 38.4391L46.2902 38.4391C46.4788 38.3084 46.6395 38.1415 46.7629 37.9481C46.8864 37.7547 46.9702 37.5387 47.0095 37.3126C47.0487 37.0866 47.0427 36.855 46.9916 36.6313C46.9406 36.4076 46.8456 36.1962 46.7121 36.0096L46.7099 36.0065C44.8321 33.3373 42.2735 31.2198 39.3002 29.8743L38.5751 29.5462L39.1854 29.0354C40.9953 27.5205 42.2943 25.4846 42.9056 23.2049C43.5169 20.9252 43.4108 18.5125 42.6017 16.2953C41.7926 14.0781 40.3198 12.1642 38.3839 10.814C36.448 9.46389 34.143 8.74319 31.7828 8.75004L31.7805 8.75005C30.7302 8.7483 29.6847 8.89333 28.6745 9.18093L28.6655 9.18349L28.6655 9.1834C28.4411 9.24278 28.2308 9.34621 28.0468 9.48765C27.8627 9.6291 27.7087 9.80574 27.5936 10.0073C27.4785 10.2089 27.4046 10.4313 27.3763 10.6617C27.348 10.892 27.3658 11.1258 27.4286 11.3492C27.4915 11.5726 27.5982 11.7813 27.7425 11.9631L27.364 12.2635L27.7425 11.9631C27.8868 12.1449 28.0658 12.2962 28.2691 12.4082C28.4725 12.5201 28.696 12.5905 28.9268 12.6152C29.1576 12.6399 29.391 12.6185 29.6134 12.5522L29.6192 12.5504L29.6192 12.5505C30.3227 12.3498 31.0508 12.2487 31.7823 12.25M46.2902 38.4391L43.4439 38.3063L43.8525 38.0182C43.8524 38.018 43.8523 38.0178 43.8521 38.0176C42.4886 36.0834 40.6809 34.5046 38.5806 33.414C36.4802 32.3233 34.1487 31.7526 31.7819 31.75H31.7814C31.3172 31.75 30.8721 31.5657 30.5439 31.2375C30.2157 30.9093 30.0314 30.4642 30.0314 30C30.0314 29.5359 30.2157 29.0908 30.5439 28.7626C30.8721 28.4344 31.3172 28.25 31.7814 28.25C33.9031 28.25 35.9379 27.4072 37.4382 25.9069C38.9385 24.4066 39.7814 22.3718 39.7814 20.25C39.7814 18.1283 38.9385 16.0935 37.4382 14.5932C35.9381 13.0931 33.9037 12.2503 31.7823 12.25M46.2902 38.4391L46.2844 38.4433M46.2902 38.4391L46.2844 38.4433M31.7823 12.25L31.7814 12.75V12.25C31.7817 12.25 31.782 12.25 31.7823 12.25ZM39.5064 29.4188L39.7125 28.9633C39.7813 28.9944 39.8498 29.0259 39.9182 29.0578C39.7839 29.181 39.6466 29.3014 39.5064 29.4188ZM39.5064 29.4188L39.8273 29.8022C39.8864 29.7528 39.9449 29.7028 40.003 29.6523C39.8387 29.5722 39.6732 29.4943 39.5064 29.4188ZM46.2844 38.4433C45.9924 38.6519 45.6424 38.7636 45.2836 38.7625L46.2844 38.4433ZM9.84835 15.8055C8.9693 17.1211 8.50011 18.6678 8.50011 20.25C8.50011 22.3718 9.34296 24.4066 10.8433 25.9069C12.3435 27.4072 14.3784 28.25 16.5001 28.25C18.0824 28.25 19.6291 27.7809 20.9447 26.9018C22.2603 26.0227 23.2856 24.7733 23.8911 23.3115C24.4966 21.8497 24.6551 20.2412 24.3464 18.6893C24.0377 17.1375 23.2758 15.712 22.157 14.5932C21.0381 13.4744 19.6127 12.7124 18.0608 12.4038C16.509 12.0951 14.9004 12.2535 13.4386 12.859C11.9768 13.4645 10.7274 14.4899 9.84835 15.8055Z" fill="#E06430" stroke="#E06430"/>
</svg>
