<svg width="41" height="41" viewBox="0 0 41 41" fill="none" xmlns="http://www.w3.org/2000/svg">
<path d="M12.3892 0.356567L15.9544 3.74351C17.2913 4.99134 18.0044 6.68483 18.0044 8.55656C18.0044 10.3392 18.7174 12.0327 19.9652 13.2805L20.4109 13.7261L24.5109 0.44569" fill="#201B21"/>
<path d="M0.267578 12.2109L5.16975 12.0326C6.95236 11.9435 8.73496 12.6566 9.98279 13.9044C11.2306 15.1522 12.9241 15.7761 14.7067 15.7761H15.3306L8.73497 3.56525" fill="#201B21"/>
<path d="M0.267394 29.1456L3.56522 25.5804C4.81304 24.2434 6.50652 23.4412 8.28913 23.4412C10.0717 23.4412 11.6761 22.6391 12.9239 21.3912L13.3696 20.9456L0 17.113" fill="#201B21"/>
<path d="M12.3893 40.9109L12.122 36.0087C12.0328 34.2261 12.6567 32.4435 13.9046 31.1066C15.0633 29.8587 15.7763 28.0761 15.6872 26.3826V25.7587L3.56543 32.6218" fill="#201B21"/>
<path d="M29.3241 40.5544L25.6698 37.3457C24.3328 36.187 23.5306 34.4935 23.4415 32.6218C23.3524 30.8391 22.5502 29.2348 21.3024 27.987L20.8567 27.5413L17.2915 41" fill="#201B21"/>
<path d="M40.9107 28.1652L36.0086 28.5217C34.2259 28.7 32.4433 28.0761 31.1064 26.8282C29.7694 25.6695 28.076 25.0456 26.2933 25.1347H25.6694L32.7999 37.0782" fill="#201B21"/>
<path d="M40.1087 11.3195L36.9891 15.063C35.8304 16.4 34.1369 17.2913 32.3543 17.3804C30.5717 17.4695 28.9674 18.2717 27.8087 19.6087L27.4521 20.0543L41 23.263" fill="#201B21"/>
<path d="M27.5411 0L27.9868 4.90217C28.1651 6.68478 27.6303 8.4674 26.3825 9.89348C25.2238 11.2304 24.689 12.9239 24.7781 14.7065L24.8672 15.3304L36.6325 7.93262" fill="#201B21"/>
</svg>
