<svg width="40" height="43" viewBox="0 0 40 43" fill="none" xmlns="http://www.w3.org/2000/svg">
<path d="M33.006 6.63334C32.6131 6.13334 32.2202 5.63334 31.8272 5.13334C30.6485 3.53334 29.3911 1.93334 27.8194 0.93334C26.0119 -0.26666 24.0473 0.033331 22.0826 0.033331C19.0964 0.033331 11.6308 0.033331 7.22998 0.033331L10.2162 5.13334C15.6386 5.13334 24.1259 5.13334 28.0551 5.13334C29.7054 5.13334 31.12 5.53334 32.4559 6.63334C32.6917 6.73334 32.9274 6.73334 33.006 6.63334Z" fill="#201B21"/>
<path d="M36.3064 14.8333C35.9135 14.3333 35.5205 13.8333 35.1276 13.3333C33.9488 11.7333 32.6915 10.1333 31.1198 9.13328C29.3123 7.93328 27.3477 8.23329 25.383 8.23329C22.7897 8.23329 16.5815 8.23329 12.1807 8.23329L15.1669 13.3333C20.5107 13.3333 27.8192 13.3333 31.4341 13.3333C33.0844 13.3333 34.4989 13.7333 35.8349 14.8333C35.9921 14.9333 36.1492 14.9333 36.3064 14.8333Z" fill="#201B21"/>
<path d="M40.0001 22.8333C39.6072 22.3333 39.2143 21.8333 38.8214 21.3333C37.6426 19.7333 36.3852 18.1333 34.8135 17.1333C33.006 15.9333 31.0414 16.2333 29.0768 16.2333C26.6406 16.2333 21.2968 16.2333 16.9746 16.2333L19.9608 21.3333C25.1475 21.3333 31.7487 21.3333 35.0493 21.3333C36.6996 21.3333 38.1141 21.7333 39.45 22.8333C39.6858 22.9333 39.843 23.0333 40.0001 22.8333Z" fill="#201B21"/>
<path d="M6.91553 36.3333C7.30845 36.8333 7.70138 37.3333 8.09431 37.8333C9.27309 39.4333 10.5305 41.0333 12.1022 42.0333C13.9096 43.2333 15.8743 42.9333 17.8389 42.9333H32.6916L29.7053 37.8333C24.2829 37.8333 15.7957 37.8333 11.8664 37.8333C10.2161 37.8333 8.80158 37.4333 7.46562 36.3333C7.22987 36.2333 7.0727 36.2333 6.91553 36.3333Z" fill="#201B21"/>
<path d="M3.61475 28.1333C4.00767 28.6333 4.4006 29.1333 4.79353 29.6333C5.97231 31.2333 7.22967 32.8334 8.80138 33.8334C10.6088 35.0334 12.5735 34.7334 14.5381 34.7334H27.7405L24.7542 29.6333C19.4104 29.6333 12.102 29.6333 8.48704 29.6333C6.83675 29.6333 5.4222 29.2333 4.08625 28.1333C3.92908 28.0333 3.77192 28.0333 3.61475 28.1333Z" fill="#201B21"/>
<path d="M0 20.0333C0.392927 20.5333 0.785855 21.0333 1.17878 21.5333C2.35756 23.1333 3.61494 24.7333 5.18665 25.7333C6.99411 26.9333 8.95874 26.6333 10.9234 26.6333H23.0255L20.0393 21.5333C14.8527 21.5333 8.25148 21.5333 4.95089 21.5333C3.30059 21.5333 1.88605 21.1333 0.550096 20.0333C0.314339 19.9333 0.157171 19.9333 0 20.0333Z" fill="#201B21"/>
</svg>
