<svg width="45" height="37" viewBox="0 0 45 37" fill="none" xmlns="http://www.w3.org/2000/svg">
<path d="M42.5386 24.9929H45L41.7812 21.6478C37.1739 16.8512 30.7994 14.1373 24.1094 14.1373H23.352H21.7111H20.8906C14.2637 14.1373 7.8892 16.8512 3.21879 21.6478L0 24.9929H2.46143C9.08836 24.9929 15.4628 22.279 20.1332 17.4823L22.5316 15.0209C21.1431 23.4781 9.08836 36.8582 9.08836 36.8582H22.5947H36.101C36.101 36.8582 24.1725 23.6675 22.6578 15.2103L24.8668 17.5455C29.4741 22.279 35.8485 24.9929 42.5386 24.9929Z" fill="#CF6F64"/>
<path d="M20.512 9.21456L22.4685 7.19493L24.425 9.21456C28.2118 13.1907 33.5134 15.3997 39.0043 15.3997H41.0239L38.3731 12.6227C34.5863 8.64654 29.2848 6.43756 23.7939 6.43756H23.1627H21.7742H21.1431C15.6522 6.43756 10.4138 8.64654 6.56386 12.6227L3.91309 15.4628H5.93272C11.4236 15.4628 16.7251 13.1907 20.512 9.21456Z" fill="#CF6F64"/>
<path d="M20.8906 2.27209L22.4684 0.631136L24.0463 2.27209C27.1388 5.49088 31.4306 7.32118 35.9116 7.32118H37.5526L35.4067 5.04909C32.3141 1.83029 28.0224 0 23.5414 0H23.0364H21.9004H21.3955C16.9144 0 12.6227 1.83029 9.53014 5.04909L7.38428 7.32118H9.02523C13.5063 7.32118 17.798 5.49088 20.8906 2.27209Z" fill="#CF6F64"/>
</svg>
