<svg width="45" height="46" viewBox="0 0 45 46" fill="none" xmlns="http://www.w3.org/2000/svg">
<path d="M32.0856 13.0749L26.23 5.93583L24.6257 3.28877L25.9092 0L18.1284 6.57754L23.984 13.6364L25.5883 16.2834L24.3049 19.5722L32.0856 13.0749Z" fill="#455A64"/>
<path d="M20.7754 9.86622L11.6311 10.0267L8.58291 9.62558L6.89844 6.57745L7.13907 16.7646L16.2834 16.6042L19.3316 17.0053L21.0161 20.0534L20.7754 9.86622Z" fill="#455A64"/>
<path d="M11.2299 16.7647L5.69519 24.0642L3.52941 26.3102L0 25.7487L8.10161 31.8449L13.6364 24.5455L15.8021 22.3797L19.3316 22.9412L11.2299 16.7647Z" fill="#455A64"/>
<path d="M10.6686 28.5561L12.8344 37.4599L13.2355 40.508L10.5884 42.9144L20.3745 40.3476L18.1285 31.4439L17.7274 28.3957L20.3745 26.0695L10.6686 28.5561Z" fill="#455A64"/>
<path d="M19.4922 36.3369L27.7542 40.1872L30.4013 41.8717L30.6419 45.4011L34.7328 36.0963L26.3906 32.246L23.7435 30.6417L23.5029 27.1123L19.4922 36.3369Z" fill="#455A64"/>
<path d="M31.0427 34.2513L39.2245 30.1604L42.1122 29.1176L44.9999 31.1229L40.3475 22.139L32.1657 26.2299L29.1978 27.2727L26.3101 25.2673L31.0427 34.2513Z" fill="#455A64"/>
<path d="M36.6579 23.9037L38.5029 14.9197L39.5456 11.9518L42.9146 10.9892L32.9681 8.98389L31.1232 17.9678L30.0804 20.9358L26.7114 21.8983L36.6579 23.9037Z" fill="#455A64"/>
</svg>
