<svg width="48" height="48" viewBox="0 0 48 48" fill="none" xmlns="http://www.w3.org/2000/svg">
<rect width="48" height="48" rx="10" fill="white"/>
<mask id="mask0_52_186" style="mask-type:luminance" maskUnits="userSpaceOnUse" x="4" y="2" width="40" height="45">
<path d="M4 2H44V46.1467H4V2Z" fill="white"/>
</mask>
<g mask="url(#mask0_52_186)">
<path d="M40.3779 10.6127L38.2012 9.35454V24.3301H38.1904C38.1713 24.8369 38.1252 25.341 38.0518 25.8423C37.9784 26.3437 37.8792 26.8396 37.7542 27.3301C37.6279 27.8219 37.4771 28.3043 37.2991 28.7785C37.1224 29.254 36.92 29.7173 36.6931 30.1711C36.4662 30.6236 36.2162 31.0638 35.9431 31.4904C35.6686 31.917 35.3738 32.3274 35.0559 32.7227C34.7393 33.1181 34.401 33.4945 34.0436 33.8545C33.6863 34.2132 33.3099 34.5515 32.9173 34.8708C32.5232 35.1901 32.1129 35.4863 31.6877 35.7621C31.2624 36.038 30.8235 36.2893 30.3711 36.5176C29.9186 36.7458 29.4553 36.9496 28.9825 37.129C28.5083 37.3083 28.026 37.4619 27.5355 37.5896C27.045 37.7173 26.5491 37.8192 26.0477 37.8939C25.5463 37.9687 25.0423 38.0162 24.5368 38.038C24.03 38.0583 23.5246 38.0529 23.0192 38.0203C22.5124 37.9877 22.011 37.9279 21.511 37.841C21.0124 37.7554 20.5192 37.6426 20.0314 37.5026C19.5436 37.364 19.0654 37.1996 18.5953 37.0094C18.1251 36.8192 17.6673 36.6045 17.2203 36.3668C16.7732 36.1276 16.3412 35.8654 15.9213 35.5801C15.5029 35.2948 15.1007 34.989 14.7135 34.6602C14.3276 34.3328 13.9594 33.985 13.6102 33.6181C13.261 33.2513 12.9322 32.8668 12.6238 32.4646C12.3167 32.0624 12.03 31.6439 11.7665 31.2119C11.5029 30.7785 11.2624 30.3328 11.0463 29.8749C10.8303 29.417 10.6387 28.9483 10.473 28.47C10.3072 27.9904 10.1659 27.504 10.0518 27.0108C9.93765 26.5176 9.84933 26.0189 9.78819 25.5162C9.72705 25.0135 9.69308 24.5081 9.68493 24.0013C9.67814 23.4945 9.69716 22.989 9.74336 22.485C9.79091 21.9795 9.86292 21.4795 9.96346 20.9823C10.0626 20.485 10.189 19.9958 10.3412 19.5121C10.4934 19.0285 10.6713 18.5543 10.8738 18.091C11.0762 17.6263 11.3031 17.1738 11.5531 16.7336C11.8045 16.2934 12.0776 15.8668 12.3738 15.4564C12.67 15.0448 12.9879 14.6507 13.3262 14.273C13.6646 13.8967 14.0219 13.538 14.3982 13.1983C14.7746 12.86 15.1686 12.5407 15.579 12.2445C15.9893 11.9469 16.4146 11.6725 16.8534 11.4198C17.2936 11.1684 17.7447 10.9401 18.2094 10.7363C18.6727 10.5325 19.1469 10.3545 19.6292 10.201C20.1129 10.0475 20.6021 9.92111 21.0993 9.82057C21.5953 9.71867 22.0966 9.64394 22.6007 9.59639C23.1048 9.54883 23.6102 9.52845 24.117 9.53524C24.6238 9.54068 25.1292 9.57465 25.6319 9.63443C26.136 9.69421 26.6347 9.78117 27.1279 9.89394C27.6224 10.0081 28.1088 10.1467 28.5871 10.3111C29.0667 10.4768 29.5355 10.667 29.9947 10.8817V4.61677L27.3249 3.076C26.8086 2.77981 26.2637 2.55291 25.689 2.39937C25.1143 2.24584 24.53 2.1684 23.9349 2.1684C23.3398 2.1684 22.7556 2.24584 22.1809 2.39937C21.6061 2.55291 21.0613 2.77981 20.545 3.076L7.492 10.6127C6.97705 10.9102 6.5083 11.2689 6.08846 11.6901C5.66727 12.1113 5.30857 12.5787 5.01102 13.0937C4.71346 13.6086 4.48792 14.1548 4.33303 14.7282C4.1795 15.3029 4.10205 15.8885 4.10205 16.4836V31.5556C4.10205 32.1507 4.1795 32.735 4.33303 33.3097C4.48792 33.8844 4.71346 34.4293 5.01102 34.9442C5.30857 35.4605 5.66727 35.9279 6.08846 36.3491C6.5083 36.7689 6.97705 37.129 7.492 37.4252L20.545 44.9619C21.0613 45.2594 21.6061 45.485 22.1809 45.6385C22.7556 45.7934 23.3398 45.8695 23.9349 45.8695C24.53 45.8695 25.1143 45.7934 25.689 45.6385C26.2637 45.485 26.8086 45.2594 27.3249 44.9619L40.3779 37.4252C40.8928 37.1276 41.3616 36.7676 41.7814 36.3477C42.2026 35.9265 42.5613 35.4592 42.8588 34.9442C43.1564 34.4279 43.3819 33.8831 43.5368 33.3083C43.6904 32.7336 43.7678 32.1494 43.7678 31.5543V16.4836C43.7678 15.8885 43.6904 15.3029 43.5368 14.7282C43.3819 14.1548 43.1564 13.6086 42.8588 13.0937C42.5613 12.5787 42.2026 12.1113 41.7814 11.6901C41.3616 11.2689 40.8928 10.9102 40.3779 10.6127Z" fill="#494949"/>
</g>
<path d="M30.2065 24.2337C30.2065 24.4321 30.197 24.6305 30.1766 24.8275C30.1576 25.0259 30.129 25.2215 30.0896 25.4158C30.0516 25.6115 30.0027 25.803 29.9456 25.9932C29.8872 26.1835 29.8206 26.3696 29.7445 26.553C29.6684 26.7365 29.5842 26.9158 29.4904 27.0911C29.3967 27.265 29.2948 27.4362 29.1847 27.6006C29.0747 27.765 28.9565 27.9253 28.8301 28.0788C28.7051 28.231 28.572 28.3791 28.432 28.5191C28.2907 28.659 28.144 28.7922 27.9904 28.9185C27.8369 29.0435 27.6779 29.1617 27.5135 29.2718C27.3478 29.3832 27.1779 29.4851 27.0027 29.5775C26.8288 29.6712 26.6494 29.7568 26.466 29.8329C26.2826 29.9076 26.0951 29.9756 25.9062 30.0326C25.716 30.0897 25.5231 30.1386 25.3288 30.1767C25.1345 30.2161 24.9388 30.2446 24.7404 30.265C24.5434 30.284 24.3451 30.2935 24.1467 30.2935C23.9483 30.2935 23.75 30.284 23.5529 30.265C23.3559 30.2446 23.1589 30.2161 22.9646 30.1767C22.7703 30.1386 22.5774 30.0897 22.3872 30.0326C22.1983 29.9756 22.0108 29.9076 21.8274 29.8329C21.644 29.7568 21.4646 29.6712 21.2907 29.5775C21.1154 29.4851 20.9456 29.3832 20.7798 29.2718C20.6154 29.1617 20.4565 29.0435 20.3029 28.9185C20.1494 28.7922 20.0027 28.659 19.8614 28.5191C19.7214 28.3791 19.5883 28.231 19.4633 28.0788C19.3369 27.9253 19.2187 27.765 19.1087 27.6006C18.9986 27.4362 18.8967 27.265 18.8029 27.0911C18.7092 26.9158 18.625 26.7365 18.5489 26.553C18.4728 26.3696 18.4062 26.1835 18.3478 25.9932C18.2907 25.803 18.2418 25.6115 18.2038 25.4158C18.1644 25.2215 18.1358 25.0259 18.1168 24.8275C18.0964 24.6305 18.0869 24.4321 18.0869 24.2337C18.0869 24.0354 18.0964 23.8384 18.1168 23.64C18.1358 23.443 18.1644 23.246 18.2038 23.0517C18.2418 22.8574 18.2907 22.6644 18.3478 22.4756C18.4062 22.2854 18.4728 22.0992 18.5489 21.9158C18.625 21.7324 18.7092 21.553 18.8029 21.3778C18.8967 21.2025 18.9986 21.0326 19.1087 20.8682C19.2187 20.7025 19.3369 20.5435 19.4633 20.39C19.5883 20.2365 19.7214 20.0897 19.8614 19.9498C20.0027 19.8085 20.1494 19.6753 20.3029 19.5503C20.4565 19.424 20.6154 19.3057 20.7798 19.1957C20.9456 19.0856 21.1154 18.9837 21.2907 18.89C21.4646 18.7962 21.644 18.712 21.8274 18.6359C22.0108 18.5598 22.1983 18.4932 22.3872 18.4362C22.5774 18.3778 22.7703 18.3302 22.9646 18.2908C23.1589 18.2528 23.3559 18.2229 23.5529 18.2038C23.75 18.1848 23.9483 18.174 24.1467 18.174C24.3451 18.174 24.5434 18.1848 24.7404 18.2038C24.9388 18.2229 25.1345 18.2528 25.3288 18.2908C25.5231 18.3302 25.716 18.3778 25.9062 18.4362C26.0951 18.4932 26.2826 18.5598 26.466 18.6359C26.6494 18.712 26.8288 18.7962 27.0027 18.89C27.1779 18.9837 27.3478 19.0856 27.5135 19.1957C27.6779 19.3057 27.8369 19.424 27.9904 19.5503C28.144 19.6753 28.2907 19.8085 28.432 19.9498C28.572 20.0897 28.7051 20.2365 28.8301 20.39C28.9565 20.5435 29.0747 20.7025 29.1847 20.8682C29.2948 21.0326 29.3967 21.2025 29.4904 21.3778C29.5842 21.553 29.6684 21.7324 29.7445 21.9158C29.8206 22.0992 29.8872 22.2854 29.9456 22.4756C30.0027 22.6644 30.0516 22.8574 30.0896 23.0517C30.129 23.246 30.1576 23.443 30.1766 23.64C30.197 23.8384 30.2065 24.0354 30.2065 24.2337Z" fill="#E0533D"/>
</svg>
