<svg width="39" height="43" viewBox="0 0 39 43" fill="none" xmlns="http://www.w3.org/2000/svg">
<path d="M14.3401 0C15.894 1.94686 19.1056 4.77611 21.7337 7.02984C24.363 9.28358 26.3631 11.0157 27.6995 12.2387C29.0358 13.4628 29.6538 14.1148 30.418 15.0893C31.1832 16.065 32.2251 17.4352 32.9814 18.6042C33.7366 19.7721 34.2107 20.7085 34.4081 21.3537C34.6067 21.9989 34.61 22.2777 34.378 22.6452C34.146 23.0128 33.4711 23.8929 32.5542 24.7517C31.6372 25.6105 30.4648 26.449 29.0191 27.246C27.5723 28.0429 25.8578 28.8017 24.4411 29.3041C23.0244 29.8066 22.1219 29.9741 21.1893 29.9932C20.2579 30.0123 19.2707 29.8841 18.2109 29.5807C17.1512 29.276 16.0145 28.7848 14.6023 27.9362C13.1911 27.0886 11.7231 26.0421 10.6567 25.1373C9.59027 24.2313 8.94104 23.5141 8.69117 23.1106C8.44129 22.7082 8.44018 22.7441 8.57069 22.009C8.70009 21.2739 8.99905 20.2757 9.53226 19.2821C10.0644 18.2884 10.862 17.2846 11.9518 16.2741C13.0428 15.2636 14.4394 14.2598 15.6296 13.6236C16.8199 12.9862 17.7591 12.7153 18.5266 12.6602C19.2941 12.604 19.9266 12.7052 20.5089 12.9739C21.0923 13.2425 21.6768 13.7247 22.0572 14.4306C22.4365 15.1365 22.8169 16.5337 23.0076 17.9422C23.1984 19.3506 23.2118 20.7815 23.0333 22.2484C22.8559 23.7142 22.48 25.2227 21.9044 26.7076C21.3288 28.1924 20.5658 29.6234 19.6622 30.952C18.7598 32.2806 17.7168 33.5115 16.5343 34.6569C15.3519 35.8012 14.0155 36.8499 12.6702 37.7975C11.326 38.7451 10.1213 39.5094 8.86407 40.167C7.60689 40.8246 6.29059 41.3832 4.90513 41.8463C3.51966 42.3106 2.05723 42.695 0.912717 42.8153C-0.231796 42.9356 -0.231796 42.9356 0.534559 42.9041C0.534559 42.9041 2.07843 42.9895 3.61671 42.9996C5.155 43.0097 6.67321 42.813 8.16353 42.4398C9.65497 42.0667 11.1152 41.5271 12.5107 40.8302C13.9073 40.1333 15.5582 39.2543 17.1188 38.1965C18.6783 37.1399 20.1017 35.9327 21.3767 34.5748C22.6518 33.217 23.7751 31.713 24.7634 30.055C25.7507 28.3981 26.4958 26.5716 26.9978 24.7585C27.4998 22.9442 27.7653 21.1131 27.7831 19.2719C27.801 17.4319 27.5689 15.5951 27.0302 13.6281C26.4914 11.6621 25.2643 10.103 24.0417 9.17791C22.8191 8.25282 21.4035 7.67168 19.882 7.46598C18.3593 7.26028 16.792 7.41989 15.1232 7.92347C13.4533 8.42705 11.4309 9.66688 9.79106 10.9461C8.15015 12.2264 6.78365 13.6224 5.71164 15.1489C4.64075 16.6754 3.89001 18.33 3.50739 19.9857C3.12477 21.6414 2.97864 22.7992 3.40923 24.2672C3.84093 25.7353 4.68872 26.9683 5.84216 28.1284C6.99448 29.2884 8.45803 30.454 10.2707 31.686C12.0846 32.918 13.6641 33.752 15.2057 34.3444C16.7474 34.9356 18.2957 35.2987 19.8418 35.4145C21.3879 35.5303 22.9128 35.3707 24.3685 34.9626C25.8232 34.5535 27.9304 33.652 29.7989 32.6673C31.6673 31.6815 33.2904 30.5923 34.6703 29.4008C36.0513 28.2104 37.1657 26.8942 38.0213 25.4239C38.878 23.9536 39.1569 22.5047 38.9181 21.2402C38.6794 19.9756 38.1317 18.7515 37.3118 17.4914C36.4919 16.2302 35.4154 14.8836 34.0947 13.4561C32.775 12.0285 32.3824 11.5519 31.2691 10.6201C30.1558 9.68711 28.4056 8.40569 25.9771 6.72747C23.5498 5.04926 20.4152 2.99448 18.4017 2.12896C14.4528 -0.156244 16.2755 1.42193 14.3401 0Z" fill="#FF3758"/>
</svg>
