<?xml version="1.0" encoding="utf-8"?>
<!-- Generator: Adobe Illustrator 24.0.1, SVG Export Plug-In . SVG Version: 6.00 Build 0)  -->
<svg version="1.1" id="Layer_1" xmlns="http://www.w3.org/2000/svg" xmlns:xlink="http://www.w3.org/1999/xlink" x="0px" y="0px"
	 viewBox="0 0 1080 1080" style="enable-background:new 0 0 1080 1080;" xml:space="preserve">
<style type="text/css">
	.st0{fill:#B3B2B2;}
	.st1{fill:#37373A;}
	.st2{fill:none;stroke:#37373A;stroke-width:0.7885;stroke-miterlimit:10;}
	.st3{fill:#717577;}
	.st4{fill:#E06430;}
	.st5{fill:#FFFFFF;}
</style>
<g>
	<path class="st0" d="M361.45,682.34c0.16-0.54,0.49-0.81,0.97-0.81h5.26c0.54,0,0.89,0.27,1.05,0.81l18.86,53.43
		c0.16,0.54-0.03,0.81-0.57,0.81h-5.67c-0.54,0-0.89-0.27-1.05-0.81l-4.21-11.98h-22.26l-4.21,11.98c-0.22,0.54-0.57,0.81-1.05,0.81
		h-5.67c-0.54,0-0.73-0.27-0.57-0.81L361.45,682.34z M373.76,717.15l-8.66-25.02h-0.16l-8.74,25.02H373.76z"/>
	<path class="st0" d="M415.77,682.34c0-0.54,0.27-0.81,0.81-0.81h5.59c0.54,0,0.81,0.27,0.81,0.81v47.04c0,0.32,0.16,0.49,0.49,0.49
		h26.23c0.54,0,0.81,0.27,0.81,0.81v5.1c0,0.54-0.27,0.81-0.81,0.81h-33.11c-0.54,0-0.81-0.27-0.81-0.81V682.34z"/>
	<path class="st0" d="M478.76,682.34c0-0.54,0.27-0.81,0.81-0.81h5.18c0.65,0,1.11,0.27,1.38,0.81l24.93,41.29h0.32v-41.29
		c0-0.54,0.27-0.81,0.81-0.81h5.1c0.54,0,0.81,0.27,0.81,0.81v53.43c0,0.54-0.27,0.81-0.81,0.81h-5.18c-0.65,0-1.11-0.27-1.38-0.81
		l-25.02-41.13h-0.24v41.13c0,0.54-0.27,0.81-0.81,0.81h-5.1c-0.54,0-0.81-0.27-0.81-0.81V682.34z"/>
	<path class="st0" d="M565.38,682.34c0.16-0.54,0.49-0.81,0.97-0.81h5.26c0.54,0,0.89,0.27,1.05,0.81l18.86,53.43
		c0.16,0.54-0.03,0.81-0.57,0.81h-5.67c-0.54,0-0.89-0.27-1.05-0.81l-4.21-11.98h-22.26l-4.21,11.98c-0.22,0.54-0.57,0.81-1.05,0.81
		h-5.67c-0.54,0-0.73-0.27-0.57-0.81L565.38,682.34z M577.69,717.15l-8.66-25.02h-0.16l-8.74,25.02H577.69z"/>
	<path class="st0" d="M615.58,731.8c-0.38-0.38-0.38-0.76,0-1.13l4.05-3.48c0.38-0.32,0.78-0.27,1.21,0.16
		c0.86,0.81,1.98,1.58,3.36,2.31c1.38,0.73,2.93,1.09,4.66,1.09c3.24,0,5.75-0.96,7.53-2.87c1.78-1.92,2.67-4.9,2.67-8.95v-36.59
		c0-0.54,0.27-0.81,0.81-0.81h5.59c0.54,0,0.81,0.27,0.81,0.81v36.59c0,6.15-1.59,10.78-4.78,13.88c-3.18,3.1-7.48,4.66-12.87,4.66
		c-2.7,0-5.21-0.54-7.53-1.62C618.76,734.77,616.92,733.42,615.58,731.8z"/>
	<path class="st0" d="M678.88,682.34c0-0.54,0.27-0.81,0.81-0.81h33.11c0.54,0,0.81,0.27,0.81,0.81v5.1c0,0.54-0.27,0.81-0.81,0.81
		h-26.23c-0.32,0-0.49,0.16-0.49,0.49v16.19c0,0.32,0.16,0.49,0.49,0.49h22.26c0.54,0,0.81,0.27,0.81,0.81v5.1
		c0,0.54-0.27,0.81-0.81,0.81h-22.26c-0.32,0-0.49,0.16-0.49,0.49v16.76c0,0.32,0.16,0.49,0.49,0.49h26.23
		c0.54,0,0.81,0.27,0.81,0.81v5.1c0,0.54-0.27,0.81-0.81,0.81h-33.11c-0.54,0-0.81-0.27-0.81-0.81V682.34z"/>
</g>
<path class="st1" d="M411.97,593.34v4.81h-8.47v-10.93c-0.77-7.97-4.57-10.36-8.8-10.36h-11.63c-4.3,0-8.21,2.41-8.85,10.71h12.29
	c7.24,0,11.22,4.28,11.15,9.68c0.07,6.28-5.86,11.57-12.62,11.59h-17.41c-7.46-0.04-13-5.93-13-14.27v-5.36h5.07v5.33
	c0,5.49,3.6,9.4,8.45,9.4h16.33c4.02,0,7.68-1.93,8.14-6.32c-0.2-2.68-1.43-4.98-6.15-4.98h-17.8
	c-0.26-14.95,5.29-20.83,14.01-20.83h11.83c10.41,0,14.58,5.09,14.05,21.54H411.97z M375.2,614.5c0,1.54-1.3,2.77-2.96,2.77
	c-1.67,0-2.96-1.23-2.96-2.77s1.3-2.77,2.96-2.77C373.9,611.73,375.2,612.96,375.2,614.5z M384.75,614.5c0,1.54-1.3,2.77-2.96,2.77
	c-1.67,0-2.96-1.23-2.96-2.77s1.3-2.77,2.96-2.77C383.45,611.73,384.75,612.96,384.75,614.5z M410.4,593.36h36.92v-8.01
	c0-4.83-3.93-8.47-9.4-8.47h-21.14v-5.07h21.16c8.28,0,14.25,5.8,14.27,13.52v12.82H410.4V593.36z M428.05,603.59
	c0-1.54,1.3-2.77,2.96-2.77s2.96,1.23,2.96,2.77s-1.3,2.77-2.96,2.77S428.05,605.13,428.05,603.59z M466.99,598.15h-10.41v-41.97
	h5.03v37.19h5.38V598.15z M486.52,598.15h-20.48v-4.79h7.82l-0.02-21.56h5.05l0.02,21.56h7.62V598.15z M473.35,564.71
	c0-1.54,1.3-2.77,2.96-2.77c1.67,0,2.96,1.23,2.96,2.77s-1.3,2.77-2.96,2.77C474.65,567.48,473.35,566.25,473.35,564.71z
	 M490.92,593.36v-37.19h5.05v41.97h-10.41v-4.79H490.92z M500.37,598.15v-41.97h5.03v41.97H500.37z M523.48,585.33
	c0-7.73,5.99-13.52,14.27-13.52h7.33v-1.54h5.03v23.09h5.18v4.79h-31.81V585.33z M545.08,593.36v-16.49h-7.31
	c-5.47,0-9.42,3.64-9.42,8.47v8.01H545.08z M528.7,564.71c0-1.54,1.3-2.77,2.96-2.77s2.96,1.23,2.96,2.77s-1.3,2.77-2.96,2.77
	S528.7,566.25,528.7,564.71z M538.25,564.71c0-1.54,1.3-2.77,2.96-2.77s2.96,1.23,2.96,2.77s-1.3,2.77-2.96,2.77
	S538.25,566.25,538.25,564.71z M553.8,593.36h34.82v-8.01c0-4.83-3.93-8.47-9.4-8.47h-21.14c-0.35-16.14,4.79-20.7,14.2-20.7h12.4
	v5.07h-12.38c-5.01,0-8.58,2.22-9.22,10.56h16.16c8.28,0,14.27,5.8,14.27,13.54v12.8H553.8V593.36z M619.07,598.15h-4.32
	c-1.43,6.37-6.59,10.65-13.15,10.65h-6.76v-4.9h6.74c4.85,0.02,8.5-3.93,8.5-9.4v-22.68h5.07v21.54h3.93V598.15z M632.29,598.15
	h-14.2v-4.79h14.2V598.15z M646.05,598.15h-14.2v-4.79h14.2V598.15z M659.8,598.15h-14.2v-4.79h14.2V598.15z M673.56,598.15h-14.2
	v-4.79h14.2V598.15z M672.58,593.36h5.95V571.8h5.05l-0.07,21.56h10.19l-0.02-17.17h5.05l0.02,17.17h10.41l-0.02-21.56h5.03
	l0.02,26.34h-41.6V593.36z M688.54,564.71c0-1.54,1.3-2.77,2.96-2.77s2.96,1.23,2.96,2.77s-1.3,2.77-2.96,2.77
	S688.54,566.25,688.54,564.71z M693.33,555.76c0-1.54,1.27-2.77,2.96-2.77c1.67,0,2.96,1.23,2.96,2.77s-1.3,2.77-2.96,2.77
	C694.6,558.52,693.33,557.29,693.33,555.76z M698.09,564.71c0-1.54,1.3-2.77,2.96-2.77s2.96,1.23,2.96,2.77s-1.3,2.77-2.96,2.77
	S698.09,566.25,698.09,564.71z"/>
<g>
	<path class="st2" d="M381.78,611.73c-1.67,0-2.96,1.23-2.96,2.77c0,1.54,1.3,2.77,2.96,2.77c1.67,0,2.96-1.23,2.96-2.77
		C384.74,612.96,383.45,611.73,381.78,611.73z M372.23,611.73c-1.67,0-2.96,1.23-2.96,2.77c0,1.54,1.3,2.77,2.96,2.77
		c1.67,0,2.96-1.23,2.96-2.77C375.19,612.96,373.9,611.73,372.23,611.73z M408.56,593.34c0.53-16.44-3.64-21.53-14.05-21.53h-11.83
		c-8.71,0-14.27,5.88-14,20.83h17.8c4.72,0,5.95,2.3,6.15,4.98c-0.46,4.39-4.13,6.32-8.14,6.32h-16.33c-4.85,0-8.45-3.91-8.45-9.4
		v-5.33h-5.07v5.36c0,8.34,5.53,14.22,12.99,14.27h17.41c6.76-0.02,12.69-5.31,12.62-11.59c0.07-5.4-3.91-9.68-11.15-9.68h-12.29
		c0.64-8.3,4.54-10.71,8.85-10.71h11.63c4.24,0,8.03,2.39,8.8,10.36v10.93h8.47v-4.81H408.56z"/>
	<path class="st2" d="M430.99,606.36c1.67,0,2.96-1.23,2.96-2.77c0-1.54-1.3-2.77-2.96-2.77c-1.67,0-2.96,1.23-2.96,2.77
		C428.03,605.13,429.33,606.36,430.99,606.36z M410.38,598.15h41.82v-12.82c-0.02-7.73-5.99-13.52-14.27-13.52h-21.16v5.07h21.14
		c5.47,0,9.39,3.64,9.39,8.47v8.01h-36.92V598.15z"/>
	<polygon class="st2" points="466.99,593.36 461.61,593.36 461.61,556.18 456.59,556.18 456.59,598.15 466.99,598.15 	"/>
	<path class="st2" d="M486.51,593.36h-7.62l-0.02-21.56h-5.05l0.02,21.56h-7.81v4.79h20.48V593.36z M476.3,567.48
		c1.67,0,2.96-1.23,2.96-2.77c0-1.54-1.3-2.77-2.96-2.77c-1.67,0-2.96,1.23-2.96,2.77C473.34,566.25,474.63,567.48,476.3,567.48z"/>
	<polygon class="st2" points="485.54,593.36 485.54,598.15 495.95,598.15 495.95,556.18 490.9,556.18 490.9,593.36 	"/>
	<rect x="500.34" y="556.18" class="st2" width="5.03" height="41.97"/>
	<path class="st2" d="M528.35,593.36v-8.01c0-4.83,3.95-8.47,9.42-8.47h7.31v16.49H528.35z M523.47,598.15h31.81v-4.79h-5.18v-23.09
		h-5.03v1.54h-7.33c-8.28,0-14.27,5.79-14.27,13.52V598.15z M541.21,567.48c1.67,0,2.96-1.23,2.96-2.77c0-1.54-1.29-2.77-2.96-2.77
		c-1.67,0-2.96,1.23-2.96,2.77C538.25,566.25,539.54,567.48,541.21,567.48z M531.66,567.48c1.67,0,2.96-1.23,2.96-2.77
		c0-1.54-1.3-2.77-2.96-2.77c-1.67,0-2.96,1.23-2.96,2.77C528.7,566.25,529.99,567.48,531.66,567.48z"/>
	<path class="st2" d="M553.79,598.15h39.71v-12.8c0-7.75-5.99-13.54-14.27-13.54h-16.15c0.64-8.34,4.21-10.56,9.22-10.56h12.38
		v-5.07h-12.4c-9.42,0-14.55,4.57-14.2,20.7h21.14c5.47,0,9.4,3.64,9.4,8.47v8.01h-34.81V598.15z"/>
	<path class="st2" d="M619.05,593.36h-3.93v-21.53h-5.07v22.67c0,5.47-3.64,9.42-8.49,9.4h-6.74v4.9h6.76
		c6.56,0,11.72-4.28,13.15-10.65h4.32V593.36z"/>
	<rect x="618.08" y="593.36" class="st2" width="14.2" height="4.78"/>
	<rect x="631.84" y="593.36" class="st2" width="14.2" height="4.78"/>
	<rect x="645.61" y="593.36" class="st2" width="14.2" height="4.78"/>
	<rect x="659.37" y="593.36" class="st2" width="14.2" height="4.78"/>
	<path class="st2" d="M672.6,598.15h41.6l-0.02-26.34h-5.03l0.02,21.56h-10.4l-0.02-17.17h-5.05l0.02,17.17h-10.19l0.07-21.56h-5.05
		v21.56h-5.95V598.15z M701.08,567.48c1.67,0,2.96-1.23,2.96-2.77c0-1.54-1.3-2.77-2.96-2.77c-1.67,0-2.96,1.23-2.96,2.77
		C698.11,566.25,699.41,567.48,701.08,567.48z M691.53,567.48c1.67,0,2.96-1.23,2.96-2.77c0-1.54-1.29-2.77-2.96-2.77
		c-1.67,0-2.96,1.23-2.96,2.77C688.56,566.25,689.86,567.48,691.53,567.48z M696.31,558.53c1.67,0,2.96-1.23,2.96-2.77
		s-1.3-2.77-2.96-2.77c-1.69,0-2.96,1.23-2.96,2.77S694.62,558.53,696.31,558.53z"/>
</g>
<path class="st1" d="M366.81,647.04h-2.35c-0.78,3.46-3.58,5.79-7.15,5.79h-3.68v-2.66h3.67c2.64,0.01,4.62-2.14,4.62-5.11v-12.33
	h2.76v11.71h2.14V647.04z M361.67,628.86c0-0.84,0.7-1.5,1.61-1.5s1.61,0.67,1.61,1.5c0,0.84-0.7,1.5-1.61,1.5
	S361.67,629.7,361.67,628.86z M365.99,644.44h4.02c-1.13-1.09-1.85-2.66-1.85-4.41c0-4.05,3.31-7.3,7.44-7.32h7.04
	c4.5,0.02,7.75,3.15,7.76,7.35v6.97h-24.42V644.44z M380.52,644.43l-0.04-4.87c-0.19-2.5-2.21-4.47-4.87-4.51c-2.77,0-5,2.23-5,5
	c0,1.95,1.13,3.62,2.77,4.38H380.52z M387.74,644.44v-4.36c0-2.63-2.14-4.6-5.11-4.61l-1.72-0.02c1.31,1.05,2.18,2.72,2.2,4.58
	l0.02,4.41H387.74z M398.45,647.04h-5.66v-22.83h2.73v20.23h2.93V647.04z M422.78,644.44v2.6h-25.13v-2.6h20.08v-4.36
	c0-2.63-2.14-4.61-5.11-4.61h-11.5v-2.76h11.51c4.5,0,7.75,3.15,7.76,7.35v4.37H422.78z M410.46,650.01c0,0.84-0.7,1.5-1.61,1.5
	c-0.91,0-1.61-0.67-1.61-1.5c0-0.84,0.7-1.5,1.61-1.5C409.76,648.5,410.46,649.17,410.46,650.01z M424.89,644.44v-20.23h2.75v22.83
	h-5.66v-2.6H424.89z M430.03,647.04v-22.83h2.73v22.83H430.03z M467.87,644.44v2.6h-20.12c-3.21-0.9-5.16-3.82-5.16-7.16
	c0-4.2,3.43-7.58,7.74-7.59v2.44c-2.85,0.02-5.13,2.32-5.13,5.16c0,2.03,1.19,3.77,2.91,4.56h14.64v-11.72h2.75l-0.01,11.72H467.87z
	 M451.99,628.86c0-0.84,0.69-1.5,1.61-1.5c0.91,0,1.61,0.67,1.61,1.5c0,0.84-0.7,1.5-1.61,1.5
	C452.69,630.36,451.99,629.7,451.99,628.86z M457.19,628.86c0-0.84,0.69-1.5,1.61-1.5c0.91,0,1.61,0.67,1.61,1.5
	c0,0.84-0.7,1.5-1.61,1.5C457.88,630.36,457.19,629.7,457.19,628.86z M470.8,647.04h-3.78v-2.6h3.78V647.04z M468.94,650.01
	c0-0.84,0.7-1.5,1.61-1.5c0.91,0,1.61,0.67,1.61,1.5c0,0.84-0.7,1.5-1.61,1.5C469.64,651.51,468.94,650.84,468.94,650.01z
	 M475.06,644.44l-0.01-11.72h2.75l0.01,14.33h-7v-2.6H475.06z M474.13,650.01c0-0.84,0.7-1.5,1.61-1.5c0.91,0,1.61,0.67,1.61,1.5
	c0,0.84-0.7,1.5-1.61,1.5C474.83,651.51,474.13,650.84,474.13,650.01z M491.42,647.04h-2.35c-0.78,3.46-3.58,5.79-7.15,5.79h-3.68
	v-2.66h3.67c2.64,0.01,4.62-2.14,4.62-5.11v-12.33h2.76v11.71h2.14V647.04z M514.58,644.44v2.6H490.6v-2.6h18.94v-4.36
	c0-2.63-2.14-4.61-5.11-4.61h-11.5c-0.19-8.78,2.6-11.26,7.73-11.26h6.75v2.76h-6.73c-2.72,0-4.67,1.21-5.01,5.74h8.79
	c4.5,0,7.76,3.15,7.76,7.37v4.36H514.58z M517.7,644.44l-0.01-11.72h2.75l0.01,14.33h-7v-2.6H517.7z M517.43,628.86
	c0-0.84,0.7-1.5,1.61-1.5c0.91,0,1.61,0.67,1.61,1.5c0,0.84-0.7,1.5-1.61,1.5C518.13,630.36,517.43,629.7,517.43,628.86z
	 M540.51,644.44v2.6h-2.4v-0.21c-0.7,3.57-3.56,6.01-7.2,6.01h-3.7v-2.65h3.69c1.98,0,3.55-1.25,4.18-3.14h-7.16
	c-3.06-1.01-5.16-3.82-5.16-7.16c0-4.21,3.44-7.59,7.76-7.59c3.96,0,7.58,3.01,7.76,7.35v4.8H540.51z M535.51,639.34
	c-0.21-2.58-2.36-4.62-5.03-4.62c-2.85,0-5.17,2.32-5.17,5.17c0,2.02,1.19,3.76,2.89,4.55h7.3L535.51,639.34z M547.7,647.04h-7.73
	v-2.6h7.73V647.04z M555.18,647.04h-7.73v-2.6h7.73V647.04z M562.66,647.04h-7.73v-2.6h7.73V647.04z M570.15,647.04h-7.73v-2.6h7.73
	V647.04z M577.63,647.04h-7.73v-2.6h7.73V647.04z M585.11,647.04h-7.73v-2.6h7.73V647.04z M592.59,647.04h-7.73v-2.6h7.73V647.04z
	 M600.07,647.04h-7.73v-2.6h7.73V647.04z M607.55,647.04h-7.73v-2.6h7.73V647.04z M615.03,647.04h-7.73v-2.6h7.73V647.04z
	 M622.52,647.04h-7.73v-2.6h7.73V647.04z M630,647.04h-7.73v-2.6H630V647.04z M637.48,647.04h-7.73v-2.6h7.73V647.04z
	 M644.96,647.04h-7.73v-2.6h7.73V647.04z M652.44,647.04h-7.73v-2.6h7.73V647.04z M659.92,647.04h-7.73v-2.6h7.73V647.04z
	 M667.4,647.04h-7.73v-2.6h7.73V647.04z M674.89,647.04h-7.73v-2.6h7.73V647.04z M682.37,647.04h-7.73v-2.6h7.73V647.04z
	 M705.82,644.44v2.6h-23.99v-2.6h18.94v-4.36c0-2.63-2.14-4.61-5.11-4.61h-11.5c-0.19-8.78,2.6-11.26,7.73-11.26h6.75v2.76h-6.73
	c-2.72,0-4.67,1.21-5.01,5.74h8.79c4.5,0,7.76,3.15,7.76,7.37v4.36H705.82z M712.65,644.44v2.6h-8.05v-2.6h2.91v-20.23h2.75v20.23
	H712.65z M714.36,644.44v-20.23h2.75v22.83h-5.66v-2.6H714.36z"/>
<path class="st3" d="M640.14,429.11h-10.33c-2.12,0-3.85-1.72-3.85-3.85V306.55c0-2.12,1.72-3.85,3.85-3.85h10.33
	c2.12,0,3.85,1.72,3.85,3.85v118.72C643.99,427.39,642.27,429.11,640.14,429.11L640.14,429.11z"/>
<path class="st1" d="M613.69,443.69v0.38c-0.49-1.65-2.02-2.85-3.84-2.85h-17.69c0.31-0.13,0.64-0.2,0.99-0.2h17.88
	C612.51,441.03,613.69,442.23,613.69,443.69z"/>
<path class="st3" d="M613.69,444.08v41.34c0,1.13-0.68,2.08-1.66,2.47c-0.73,0.73-1.72,1.16-2.82,1.16h-130.7c-2.21,0-4-1.79-4-4.01
	v-9.8c0-2.21,1.79-4,4-4h111.98v-12.19H479.16c-2.21,0-4-1.79-4-4v-9.81c0-0.39,0.05-0.77,0.16-1.12V405c0-1.38,1.12-2.5,2.49-2.5
	h12.3c1.37,0,2.5,1.12,2.5,2.5v36.23h117.25C611.67,441.23,613.2,442.43,613.69,444.08z"/>
<path class="st1" d="M613.86,445.23v9.81c0,0.4-0.06,0.79-0.17,1.15v-12.12C613.8,444.45,613.86,444.83,613.86,445.23z"/>
<path class="st3" d="M645.27,508.44l-0.01,8.72c0,2.76-2.24,4.98-4.99,4.98l-194.77-0.2c-2.76,0-4.98-2.24-4.98-4.98l0.01-8.72
	c0-0.67,0.14-1.31,0.38-1.89l0.16-167.54c0-1.88,1.11-3.49,2.71-4.22c0.52-1.12,1.66-1.89,2.97-1.89l67.66,0.06l0.01-11.54
	l-68.99-0.06c-1.77-0.01-3.22-1.45-3.22-3.23l0.01-11.37c0-1.78,1.45-3.23,3.23-3.23l83.37,0.09c1.25,0,2.35,0.72,2.87,1.77
	c0.35,0.41,0.57,0.94,0.57,1.53l-0.04,42.38c0,1.29-1.05,2.34-2.34,2.34h-0.85c-0.15,0.03-0.29,0.03-0.44,0.03l-69.31-0.07
	l-0.15,151.86l181.18,0.17C643.05,503.46,645.27,505.69,645.27,508.44z"/>
<path class="st3" d="M617.78,306.69v117.89c0,2.02-1.58,3.68-3.57,3.81h-0.01c-0.31,0.1-0.64,0.15-0.99,0.15h-93.7
	c-1.63,0-2.98-1.17-3.28-2.71c-0.2-0.38-0.32-0.83-0.32-1.29v-61.36c0-1.54,1.25-2.78,2.78-2.78h12.25c1.54,0,2.78,1.25,2.78,2.78
	v48.25h21.79v-79.28c0-1.95,1.59-3.54,3.54-3.54h13.18c1.95,0,3.54,1.59,3.54,3.54v79.28h24.1V306.69c0-2.11,1.72-3.82,3.82-3.82
	h10.26C616.07,302.86,617.78,304.58,617.78,306.69z"/>
<path class="st4" d="M642.61,464.41c-11.86-1.91-16.77-8.85-14.41-20.64c0.63-3.13,1.48-6.22,2.65-9.52
	c1.31,9.69,8.63,9.99,16.12,10.6c-0.32,6.03-0.62,11.57-0.91,17.11C645.94,464.25,644.75,464.75,642.61,464.41"/>
<path class="st4" d="M571.11,322.91c-11.86-1.91-16.77-8.85-14.41-20.64c0.63-3.13,1.48-6.22,2.65-9.52
	c1.31,9.69,8.63,9.99,16.12,10.6c-0.32,6.03-0.62,11.57-0.91,17.11C574.44,322.75,573.25,323.25,571.11,322.91"/>
<path class="st4" d="M488.61,387.91c-11.86-1.9-16.77-8.85-14.41-20.64c0.63-3.13,1.48-6.22,2.65-9.52
	c1.31,9.69,8.63,9.99,16.12,10.6c-0.32,6.03-0.62,11.57-0.91,17.11C491.94,387.75,490.75,388.25,488.61,387.91"/>
<path class="st4" d="M641.61,493.41c-11.86-1.91-16.77-8.85-14.41-20.64c0.63-3.13,1.48-6.22,2.65-9.52
	c1.31,9.69,8.63,9.99,16.12,10.6c-0.32,6.03-0.62,11.57-0.91,17.11C644.94,493.25,643.75,493.75,641.61,493.41"/>
</svg>
