<svg width="270" height="43" viewBox="0 0 270 43" fill="none" xmlns="http://www.w3.org/2000/svg">
<path d="M56.6185 6.7471C56.7154 6.4199 56.9154 6.2563 57.2062 6.2563H60.3934C60.7206 6.2563 60.9326 6.4199 61.0296 6.7471L72.4573 39.1215C72.5542 39.4487 72.4391 39.6123 72.1119 39.6123H68.6763C68.3491 39.6123 68.137 39.4487 68.0401 39.1215L65.4892 31.8625H52.0013L49.4504 39.1215C49.3171 39.4487 49.105 39.6123 48.8142 39.6123H45.3786C45.0514 39.6123 44.9363 39.4487 45.0332 39.1215L56.6185 6.7471ZM64.0774 27.8392L58.8301 12.6791H58.7331L53.4374 27.8392H64.0774Z" fill="#E06430"/>
<path d="M89.5322 6.7471C89.5322 6.4199 89.6958 6.2563 90.023 6.2563H93.4101C93.7373 6.2563 93.9009 6.4199 93.9009 6.7471V35.2497C93.9009 35.4436 93.9979 35.5466 94.1978 35.5466H110.091C110.418 35.5466 110.582 35.7102 110.582 36.0374V39.1276C110.582 39.4548 110.418 39.6184 110.091 39.6184H90.0291C89.7019 39.6184 89.5383 39.4548 89.5383 39.1276V6.7471H89.5322Z" fill="#E06430"/>
<path d="M127.699 6.7471C127.699 6.4199 127.863 6.2563 128.19 6.2563H131.329C131.722 6.2563 132.001 6.4199 132.165 6.7471L147.27 31.7656H147.464V6.7471C147.464 6.4199 147.628 6.2563 147.955 6.2563H151.045C151.373 6.2563 151.536 6.4199 151.536 6.7471V39.1215C151.536 39.4487 151.373 39.6123 151.045 39.6123H147.907C147.513 39.6123 147.234 39.4487 147.071 39.1215L131.91 14.1999H131.765V39.1215C131.765 39.4487 131.601 39.6123 131.274 39.6123H128.184C127.857 39.6123 127.693 39.4487 127.693 39.1215V6.7471H127.699Z" fill="#E06430"/>
<path d="M180.184 6.7471C180.281 6.4199 180.481 6.2563 180.772 6.2563H183.959C184.286 6.2563 184.498 6.4199 184.595 6.7471L196.023 39.1215C196.12 39.4487 196.005 39.6123 195.678 39.6123H192.242C191.915 39.6123 191.703 39.4487 191.606 39.1215L189.055 31.8625H175.567L173.016 39.1215C172.883 39.4487 172.671 39.6123 172.38 39.6123H168.944C168.617 39.6123 168.502 39.4487 168.599 39.1215L180.184 6.7471ZM187.643 27.8392L182.396 12.6791H182.299L177.003 27.8392H187.643Z" fill="#E06430"/>
<path d="M210.601 36.716C210.371 36.4857 210.371 36.2555 210.601 36.0313L213.055 33.9227C213.286 33.7288 213.528 33.7591 213.789 34.0196C214.31 34.5104 214.988 34.977 215.824 35.4193C216.661 35.8616 217.6 36.0798 218.648 36.0798C220.611 36.0798 222.132 35.4981 223.211 34.3408C224.289 33.1774 224.828 31.3717 224.828 28.9178V6.7471C224.828 6.4199 224.992 6.2563 225.319 6.2563H228.706C229.034 6.2563 229.197 6.4199 229.197 6.7471V28.9178C229.197 32.6442 228.234 35.4496 226.301 37.328C224.374 39.2063 221.769 40.1515 218.503 40.1515C216.867 40.1515 215.346 39.8244 213.94 39.17C212.528 38.5156 211.413 37.6976 210.601 36.716Z" fill="#E06430"/>
<path d="M248.956 6.7471C248.956 6.4199 249.12 6.2563 249.447 6.2563H269.509C269.836 6.2563 270 6.4199 270 6.7471V9.83728C270 10.1645 269.836 10.3281 269.509 10.3281H253.616C253.422 10.3281 253.319 10.425 253.319 10.625V20.4349C253.319 20.6288 253.416 20.7318 253.616 20.7318H267.104C267.431 20.7318 267.594 20.8953 267.594 21.2225V24.3128C267.594 24.64 267.431 24.8036 267.104 24.8036H253.616C253.422 24.8036 253.319 24.9005 253.319 25.1005V35.2557C253.319 35.4496 253.416 35.5526 253.616 35.5526H269.509C269.836 35.5526 270 35.7162 270 36.0434V39.1336C270 39.4608 269.836 39.6244 269.509 39.6244H249.447C249.12 39.6244 248.956 39.4608 248.956 39.1336V6.7471Z" fill="#E06430"/>
<path d="M36.7428 25.099H34.8415C34.4512 25.099 34.1328 24.7824 34.1328 24.3903V2.54009C34.1328 2.14987 34.4494 1.83144 34.8415 1.83144H36.7428C37.1331 1.83144 37.4515 2.14803 37.4515 2.54009V24.3922C37.4515 24.7824 37.1349 25.099 36.7428 25.099Z" fill="#717577"/>
<path d="M31.8743 27.7826V27.8526C31.7841 27.5489 31.5025 27.328 31.1675 27.328H27.9114C27.9684 27.3041 28.0292 27.2912 28.0936 27.2912H31.3847C31.6571 27.293 31.8743 27.5139 31.8743 27.7826Z" fill="#37373A"/>
<path d="M31.8744 27.8544V35.4636C31.8744 35.6716 31.7492 35.8465 31.5688 35.9182C31.4345 36.0526 31.2522 36.1318 31.0498 36.1318H6.9926C6.58582 36.1318 6.25635 35.8023 6.25635 35.3937V33.5898C6.25635 33.1831 6.58582 32.8536 6.9926 32.8536H27.6041V30.6098H7.11224C6.70546 30.6098 6.37599 30.2804 6.37599 29.8736V28.0679C6.37599 27.9961 6.38519 27.9262 6.40544 27.8618V20.6612C6.40544 20.4072 6.61159 20.201 6.86376 20.201H9.12774C9.37991 20.201 9.5879 20.4072 9.5879 20.6612V27.3298H31.1694C31.5026 27.3298 31.7842 27.5507 31.8744 27.8544Z" fill="#717577"/>
<path d="M31.9056 28.0661V29.8717C31.9056 29.9454 31.8945 30.0172 31.8743 30.0834V27.8526C31.8945 27.9225 31.9056 27.9925 31.9056 28.0661Z" fill="#37373A"/>
<path d="M37.6871 39.7008L37.6853 41.3058C37.6853 41.8138 37.273 42.2225 36.7668 42.2225L0.916641 42.1856C0.408624 42.1856 0 41.7733 0 41.269L0.00184244 39.664C0.00184244 39.5406 0.0276123 39.4228 0.0717877 39.3161L0.101239 8.478C0.101239 8.13196 0.305548 7.83561 0.60005 7.70125C0.695764 7.49509 0.905597 7.35337 1.14672 7.35337L13.6005 7.36441L13.6023 5.24031L0.903755 5.22927C0.577962 5.22743 0.311069 4.96237 0.311069 4.63474L0.312911 2.54193C0.312911 2.2143 0.579806 1.9474 0.90744 1.9474L16.2529 1.96397C16.4829 1.96397 16.6854 2.0965 16.7811 2.28976C16.8455 2.36523 16.886 2.46278 16.886 2.57138L16.8787 10.372C16.8787 10.6095 16.6854 10.8027 16.448 10.8027H16.2915C16.2639 10.8082 16.2381 10.8082 16.2105 10.8082L3.45304 10.7954L3.42543 38.7473L36.7741 38.7786C37.2785 38.7841 37.6871 39.1946 37.6871 39.7008Z" fill="#717577"/>
<path d="M32.6271 2.56586V24.2652C32.6271 24.637 32.3363 24.9425 31.97 24.9664H31.9681C31.9111 24.9849 31.8503 24.9941 31.7859 24.9941H14.5391C14.2391 24.9941 13.9906 24.7787 13.9354 24.4952C13.8986 24.4253 13.8765 24.3425 13.8765 24.2578V12.9636C13.8765 12.6802 14.1066 12.4519 14.3882 12.4519H16.643C16.9264 12.4519 17.1546 12.682 17.1546 12.9636V21.8447H21.1654V7.25213C21.1654 6.8932 21.4581 6.60054 21.817 6.60054H24.243C24.6019 6.60054 24.8945 6.8932 24.8945 7.25213V21.8447H29.3305V2.56586C29.3305 2.17748 29.6471 1.86273 30.0336 1.86273H31.9221C32.3123 1.86089 32.6271 2.17748 32.6271 2.56586Z" fill="#717577"/>
<path d="M37.1976 31.5964C35.0146 31.2449 34.1108 29.9675 34.5452 27.7973C34.6612 27.2212 34.8176 26.6525 35.033 26.0451C35.2741 27.8286 36.6215 27.8839 38.0001 27.9961C37.9412 29.106 37.886 30.1258 37.8326 31.1455C37.8105 31.567 37.5915 31.659 37.1976 31.5964Z" fill="#E06430"/>
<path d="M24.0369 5.55137C21.8539 5.19981 20.9502 3.9224 21.3846 1.75229C21.5005 1.17617 21.657 0.607411 21.8723 0C22.1135 1.78358 23.4608 1.8388 24.8395 1.95108C24.7806 3.06099 24.7253 4.0807 24.672 5.10041C24.6499 5.52192 24.4308 5.61395 24.0369 5.55137Z" fill="#E06430"/>
<path d="M8.85163 17.5155C6.66863 17.1658 5.76488 15.8866 6.19927 13.7165C6.31524 13.1403 6.47169 12.5716 6.68704 11.9642C6.92817 13.7477 8.27551 13.803 9.65415 13.9152C9.59525 15.0252 9.54003 16.0449 9.48666 17.0646C9.46457 17.4861 9.24553 17.5781 8.85163 17.5155Z" fill="#E06430"/>
<path d="M37.0135 36.9343C34.8305 36.5827 33.9267 35.3053 34.3611 33.1352C34.4771 32.5591 34.6335 31.9903 34.8489 31.3829C35.09 33.1665 36.4374 33.2217 37.816 33.334C37.7571 34.4439 37.7019 35.4636 37.6485 36.4833C37.6264 36.9048 37.4074 36.9969 37.0135 36.9343Z" fill="#E06430"/>
</svg>
