<svg width="199" height="681" viewBox="0 0 199 681" fill="none" xmlns="http://www.w3.org/2000/svg">
<mask id="mask0_52_285" style="mask-type:alpha" maskUnits="userSpaceOnUse" x="0" y="-89" width="199" height="770">
<g style="mix-blend-mode:multiply">
<rect y="-89" width="199" height="770" fill="black"/>
</g>
</mask>
<g mask="url(#mask0_52_285)">
<g style="mix-blend-mode:multiply">
<rect y="-89" width="199" height="770" fill="#717577"/>
</g>
<g opacity="0.6">
<path d="M-484.299 655.11H-585.289V-0.466278H-482.875C-431.294 -0.466278 -390.027 7.10542 -360.228 22.0605C-307.37 48.5416 -266.771 95.399 -239.615 161.384C-229.593 186.027 -222.034 212.354 -217.135 239.678C-202.981 203.93 -182.939 175.685 -157.611 155.784C-133.589 136.954 -106.764 127.43 -77.8677 127.43C-51.0419 127.43 -24.8768 137.281 -0.106689 156.716L0.0768433 156.855V230.005L-0.532532 229.311C-13.6738 214.306 -25.589 203.742 -35.9404 197.904C-50.1063 189.665 -65.3577 185.368 -80.7822 185.268C-100.595 185.068 -120.04 192.49 -136.842 206.665C-154.762 221.531 -168.579 242.343 -177.954 268.626C-185.64 290.155 -189.568 313.776 -189.436 337.674C-189.436 383.322 -177.293 421.071 -153.331 449.862C-132.54 474.797 -108.122 487.443 -80.7675 487.443C-66.1947 487.443 -52.657 483.924 -40.5289 476.987C-28.4008 470.049 -14.8925 458.087 -0.525146 441.665L0.0841675 440.972V515.301L-0.0993652 515.44C-25.7945 535.261 -53.0461 545.251 -81.1493 545.251C-107.806 545.251 -132.87 536.708 -155.658 519.88C-183.027 499.563 -204.273 469.911 -218.795 431.676C-219.103 430.893 -219.375 430.1 -219.639 429.337L-219.771 428.94C-219.896 428.613 -220.013 428.276 -220.123 427.949L-220.219 427.682H-220.182L-324.996 112.356L-471.753 537.848H-424.18L-391.07 439.941H-263.328L-263.233 440.238L-243.543 501.595L-243.646 501.813C-259.305 536.153 -280.588 566.569 -306.892 592.208C-331.398 616.092 -356.653 632.742 -381.959 641.691C-407.265 650.64 -441.594 655.11 -484.329 655.11H-484.299ZM-584.554 654.119H-484.299C-441.631 654.119 -407.214 649.62 -382.121 640.73C-357.027 631.84 -331.729 615.21 -307.296 591.405C-281.124 565.895 -259.944 535.658 -244.336 501.516L-263.783 440.932H-390.593L-423.703 538.839H-472.891L-324.982 109.968L-219.03 428.851L-218.986 428.98C-218.729 429.733 -218.457 430.516 -218.163 431.279C-203.686 469.296 -182.535 498.82 -155.298 519.028C-132.62 535.786 -107.674 544.28 -81.1493 544.28C-53.2516 544.28 -26.1542 534.369 -0.649963 514.736V443.103C-14.8557 459.247 -28.1732 470.941 -40.2426 477.899C-52.4661 484.886 -66.0992 488.434 -80.7675 488.434C-108.313 488.434 -132.892 475.708 -153.823 450.605C-177.947 421.616 -190.17 383.619 -190.17 337.674C-190.288 313.634 -186.322 289.878 -178.578 268.23C-169.174 241.828 -155.262 220.847 -137.216 205.863C-120.306 191.575 -100.731 184.088 -80.7822 184.277C-65.2597 184.391 -49.9136 188.729 -35.6614 197.032C-25.3834 202.82 -13.637 213.206 -0.664673 227.914V157.469C-25.2733 138.223 -51.2474 128.461 -77.875 128.461C-106.639 128.461 -133.34 137.955 -157.244 156.676C-182.535 176.547 -202.526 204.772 -216.658 240.569C-216.74 240.742 -216.809 240.924 -216.864 241.115L-217.37 242.71L-217.627 241.263C-222.498 213.549 -230.113 186.847 -240.268 161.879C-267.329 96.1324 -307.81 49.4039 -360.485 23.0119C-390.203 8.09648 -431.382 0.524782 -482.875 0.524782H-584.554V654.119Z" fill="white"/>
<path d="M290.51 253.501C251.42 253.595 212.717 243.045 176.717 222.481C141.978 202.665 110.416 173.938 83.7816 137.894C57.0632 101.942 35.7682 59.3314 21.078 12.4255C5.84025 -36.1707 -1.97538 -88.4186 -1.90084 -141.189H-1.16669C-1.16669 75.9029 129.666 252.53 290.488 252.53V253.521L290.51 253.501Z" fill="white"/>
<path d="M28.3927 776.822H27.6586C27.6238 724.972 35.1633 673.621 49.8455 625.709C64.5278 577.796 86.0646 534.262 113.224 497.598C140.383 460.934 172.631 431.86 208.123 412.038C243.614 392.217 281.653 382.037 320.062 382.083V383.074C159.24 383.074 28.4074 559.701 28.4074 776.793L28.3927 776.822Z" fill="white"/>
<path d="M0.0767044 776.822H-0.657471V-122.159H0.0767044V776.822Z" fill="white"/>
<path d="M106.851 776.822H106.117V-122.159H106.851V776.822Z" fill="white"/>
<path d="M320.048 655.11H-699.669V654.119H320.048V655.11Z" fill="white"/>
<path d="M320.048 538.839H-699.669V537.848H320.048V538.839Z" fill="white"/>
<path d="M320.048 0.544607H-699.669V-0.446457H320.048V0.544607Z" fill="white"/>
<path d="M320.048 185.268H-699.669V184.277H320.048V185.268Z" fill="white"/>
<path d="M320.048 235.628H-699.669V234.637H320.048V235.628Z" fill="white"/>
<path d="M320.048 391.854H-699.669V390.863H320.048V391.854Z" fill="white"/>
<path d="M320.048 440.932H-699.669V439.941H320.048V440.932Z" fill="white"/>
<path d="M320.048 488.434H-699.669V487.443H320.048V488.434Z" fill="white"/>
</g>
</g>
</svg>
